<svg width="159" height="159" viewBox="0 0 159 159" fill="none" xmlns="http://www.w3.org/2000/svg">
<rect width="159" height="159" rx="20" fill="white"/>
<path d="M59.3 98.2L73.4 54.3C73.5333 53.7 73.8667 53.4 74.4 53.4H77.7C79.2333 53.4 80.5333 53.9 81.6 54.9C82.6667 55.9 83.2333 57.2667 83.3 59L86 108.1C86 108.7 85.7667 109 85.3 109H79.2C78.6667 109 78.4 108.7 78.4 108.1L76.3 67.4L63 108.1C62.8 108.7 62.4 109 61.8 109H56.3C55.8333 109 55.4667 108.7 55.2 108.1L42.4 67.8L40.2 108.1C40.2 108.7 39.9667 109 39.5 109H33.3C32.8333 109 32.6 108.7 32.6 108.1L35.6 54.3C35.6 53.7 35.8667 53.4 36.4 53.4H39.6C41.5333 53.4 43 53.7333 44 54.4C45 55.0667 45.7333 56.2333 46.2 57.9L59.3 98.2ZM104.5 85.1V108.1C104.5 108.7 104.233 109 103.7 109H97.7C97.1667 109 96.9 108.7 96.9 108.1V54.3C96.9 53.7 97.1667 53.4 97.7 53.4H123.3C126.3 53.4 127.8 54.8333 127.8 57.7V59.4C127.8 60.1333 127.433 60.5 126.7 60.5H104.5V78H121.3C124.3 78 125.8 79.4667 125.8 82.4V83.9C125.8 84.7 125.4 85.1 124.6 85.1H104.5Z" fill="black"/>
</svg>
